<svg xmlns="http://www.w3.org/2000/svg" viewBox="0 0 500 500"><g id="freepik--Floor--inject-194"><ellipse id="freepik--floor--inject-194" cx="247" cy="344.3" rx="234.59" ry="140.4" style="fill:#f5f5f5"></ellipse></g><g id="freepik--Shadows--inject-194"><path id="freepik--Shadow--inject-194" d="M288.54,281.75l-4.25-2.45a11.48,11.48,0,0,0-10.43,0L49.47,408.85c-2.87,1.66-2.87,4.37,0,6l4.24,2.45a11.54,11.54,0,0,0,10.43,0L132.31,378l30.33,17.51c7.82,4.51,20.61,4.51,28.43,0l47-27.15c6.68-3.86,6.68-10.17,0-14L205.7,335.6l82.84-47.83C291.41,286.11,291.41,283.4,288.54,281.75Z" style="fill:#e0e0e0"></path><path id="freepik--shadow--inject-194" d="M370.2,440.83c23.42,13.52,61.38,13.52,84.79,0s23.42-35.43,0-48.95-61.37-13.52-84.79,0S346.79,427.31,370.2,440.83Z" style="fill:#e0e0e0"></path></g><g id="freepik--Clouds--inject-194"><g id="freepik--clouds--inject-194"><path d="M140.82,86.46l3.77-2.28a6.56,6.56,0,0,1-.05-.79V81.53a11.5,11.5,0,0,1,5.2-9,4.08,4.08,0,0,1,3.1-.6c.47-4.71,3.74-10,7.72-12.34,4.29-2.48,7.78-.47,7.78,4.49v2.79a13.49,13.49,0,0,1-.66,4L173,67.77c1.6-.92,2.89-.18,2.89,1.66a6.37,6.37,0,0,1-2.89,5l-32.2,18.69c-1.59.92-2.88.18-2.88-1.66A6.39,6.39,0,0,1,140.82,86.46Z" style="fill:#ebebeb"></path><path d="M108.54,78.86l-4,1.52v-8.7c0-6.9-5.5-8.55-11.48-5.11h0C87.14,70,82.3,78.41,82.3,85.31v1.26a5.79,5.79,0,0,0-5,.78h0a17.18,17.18,0,0,0-7.78,13.48v.57L64,104.58a11.33,11.33,0,0,0-5.13,8.88c0,3.27,2.3,4.59,5.13,3L108.54,90.7a11.34,11.34,0,0,0,5.12-8.88C113.66,78.55,111.37,77.22,108.54,78.86Z" style="fill:#ebebeb"></path></g></g><g id="freepik--Device--inject-194"><g id="freepik--Monitor--inject-194"><path d="M191.61,388.5,230.52,366c4-2.32,6-5.35,6-8.38s0-5.42,0-5.42l-36.61-20.77a8.57,8.57,0,0,1-3.87-6.71v-48L128.12,316v48A8.55,8.55,0,0,0,132,370.7l30.58,17.8C170.59,393.13,183.59,393.13,191.61,388.5Z" style="fill:#263238"></path><path d="M144.43,372.49v5.39L132,370.7a8.56,8.56,0,0,1-3.87-6.71V316l12.95-7.47c.26,3.29.56,6.69.82,10l-9.07,5.25v37.48a8.51,8.51,0,0,0,3.86,6.7Z" style="opacity:0.15"></path><path d="M132.8,361.29a8.56,8.56,0,0,0,3.88,6.71l25.88,15.09c8,4.64,21,4.64,29.05,0l38.92-22.49c8-4.63,8-12.14,0-16.77l-25.91-15.11a8.53,8.53,0,0,1-3.87-6.7V284.55l-68,39.26Z" style="fill:#455a64"></path><path d="M212.52,333.29h0l-7.89-4.56a8.53,8.53,0,0,1-3.87-6.7V284.55l-68,39.26v37.48a8.56,8.56,0,0,0,3.88,6.71l7.75,4.48Z" style="opacity:0.30000000000000004"></path><path d="M51.86,390.87a10.38,10.38,0,0,0,9.38-.17L284.81,261.62a10.68,10.68,0,0,0,4.83-8.38V49.56a10.35,10.35,0,0,0-4.54-8.21,10.38,10.38,0,0,0-9.38.17L52.16,170.59A10.72,10.72,0,0,0,47.32,179V382.66A10.37,10.37,0,0,0,51.86,390.87Z" style="fill:#455a64"></path><path d="M61.24,390.69,284.81,261.62a10.72,10.72,0,0,0,4.84-8.39V49.55c0-3.09-2.17-4.34-4.84-2.79L61.24,175.83a10.71,10.71,0,0,0-4.84,8.38V387.9C56.4,391,58.57,392.23,61.24,390.69Z" style="fill:#37474f"></path><path d="M62.8,356.11V186.37a6.54,6.54,0,0,1,3-5.15L280.26,57.38c1.65-1,3-.18,3,1.72V228.84a6.57,6.57,0,0,1-3,5.16L65.77,357.83C64.13,358.78,62.8,358,62.8,356.11Z" style="fill:#BA68C8"></path><path d="M62.8,356.11V186.37a6.54,6.54,0,0,1,3-5.15L280.26,57.38c1.65-1,3-.18,3,1.72V228.84a6.57,6.57,0,0,1-3,5.16L65.77,357.83C64.13,358.78,62.8,358,62.8,356.11Z" style="fill:#fff;opacity:0.7000000000000001"></path><path d="M48.75,174.19l9.07,5.23a10.42,10.42,0,0,0-1.43,4.79V387.9c0,2.81,1.91,4.39,4.84,2.8a10.29,10.29,0,0,1-9.38.17,9.31,9.31,0,0,1-4.55-7.63V179A9.94,9.94,0,0,1,48.75,174.19Z" style="fill:#263238"></path><path d="M168.78,315.74l10.95-6.29c1-.56,1.78-.16,1.78.9a3.83,3.83,0,0,1-1.78,2.95l-10.95,6.28c-1,.57-1.77.17-1.77-.9A3.78,3.78,0,0,1,168.78,315.74Z" style="fill:#BA68C8"></path></g></g><g id="freepik--Plants--inject-194"><g id="freepik--plants--inject-194"><path d="M114.91,422.79l7.63-4.41s4.55-18.89,2.74-35.89C122.73,358.6,107,349.61,101,351.67s-7.71,9,2.18,23.25C109,383.31,116.22,400.8,114.91,422.79Z" style="fill:#BA68C8"></path><g style="opacity:0.30000000000000004"><path d="M114.91,422.79l7.63-4.41s4.55-18.89,2.74-35.89C122.73,358.6,107,349.61,101,351.67s-7.71,9,2.18,23.25C109,383.31,116.22,400.8,114.91,422.79Z" style="fill:#fff"></path></g><path d="M118.07,413.51H118a.52.52,0,0,1-.42-.62c4.18-22-3.52-46.8-13-57.11a.51.51,0,0,1,0-.74.53.53,0,0,1,.75,0c9.71,10.49,17.55,35.66,13.31,58A.54.54,0,0,1,118.07,413.51Z" style="fill:#fff"></path><path d="M95.68,433.89c-1.14.58-4.17-2-5-2.65A10.61,10.61,0,0,1,87.35,427a9.87,9.87,0,0,1-.58-6,22.85,22.85,0,0,1,.91-3.13l1-3a7.79,7.79,0,0,0,.61-3.07c-.17-2.12-2-3.69-3.59-5-1.81-1.5-3.67-3.46-3.53-6a8.91,8.91,0,0,1,2.5-5.18c1.29-1.47,2.79-2.76,4-4.32a6.23,6.23,0,0,0,1.47-3.87,6.73,6.73,0,0,0-.73-2.5A34.1,34.1,0,0,1,87,379.83c-.53-1.8-.33-4,1.11-5.2a5.81,5.81,0,0,1,4.41-.86,9.83,9.83,0,0,1,4,1.63c3.91,2.44,6,7.31,10.14,9.24a42.05,42.05,0,0,0,5.09,1.53,6.34,6.34,0,0,1,4.11,3.13c1.41,3.2-1.69,6.91-.75,10.28.82,3,3.62,4.25,5.09,7a6.31,6.31,0,0,1,.55,3.88,18.15,18.15,0,0,1-1.95,6.42,58.37,58.37,0,0,1-3.85,5.93S95.86,433.8,95.68,433.89Z" style="fill:#BA68C8"></path><g style="opacity:0.65"><path d="M95.68,433.89c-1.14.58-4.17-2-5-2.65A10.61,10.61,0,0,1,87.35,427a9.87,9.87,0,0,1-.58-6,22.85,22.85,0,0,1,.91-3.13l1-3a7.79,7.79,0,0,0,.61-3.07c-.17-2.12-2-3.69-3.59-5-1.81-1.5-3.67-3.46-3.53-6a8.91,8.91,0,0,1,2.5-5.18c1.29-1.47,2.79-2.76,4-4.32a6.23,6.23,0,0,0,1.47-3.87,6.73,6.73,0,0,0-.73-2.5A34.1,34.1,0,0,1,87,379.83c-.53-1.8-.33-4,1.11-5.2a5.81,5.81,0,0,1,4.41-.86,9.83,9.83,0,0,1,4,1.63c3.91,2.44,6,7.31,10.14,9.24a42.05,42.05,0,0,0,5.09,1.53,6.34,6.34,0,0,1,4.11,3.13c1.41,3.2-1.69,6.91-.75,10.28.82,3,3.62,4.25,5.09,7a6.31,6.31,0,0,1,.55,3.88,18.15,18.15,0,0,1-1.95,6.42,58.37,58.37,0,0,1-3.85,5.93S95.86,433.8,95.68,433.89Z" style="fill:#fff"></path></g><path d="M106.74,428.13h0a.5.5,0,0,1-.46-.55c1.82-19.82-6.43-42.22-12.91-48.94a.5.5,0,0,1,0-.71.51.51,0,0,1,.71,0c6.61,6.85,15,29.63,13.18,49.73A.5.5,0,0,1,106.74,428.13Z" style="fill:#fff"></path><path d="M104.77,403.68a.4.4,0,0,1-.15,0,67.84,67.84,0,0,0-14.29-3,.5.5,0,0,1-.46-.54.49.49,0,0,1,.55-.45,67.69,67.69,0,0,1,14.55,3.1.52.52,0,0,1,.3.65A.49.49,0,0,1,104.77,403.68Z" style="fill:#fff"></path></g></g><g id="freepik--Window--inject-194"><g id="freepik--window--inject-194"><g id="freepik--window--inject-194"><path d="M375.06,54.43a2.43,2.43,0,0,0-.1-.55.13.13,0,0,0,0-.12,2.17,2.17,0,0,0-.14-.53,2.75,2.75,0,0,0-.35-.76,1,1,0,0,0-.2-.31.92.92,0,0,0-.17-.22,2.4,2.4,0,0,0-.39-.39l0,0a2.9,2.9,0,0,0-.51-.29,4.32,4.32,0,0,0-4,.51L165.64,169.22c-3.29,1.89-6,6.53-6,13.17V369.92a4.09,4.09,0,0,0,6.15,3.54L369.13,256a13.21,13.21,0,0,0,6-10.34V55.17C375.09,54.92,375.08,54.66,375.06,54.43Z" style="fill:#fafafa"></path><path d="M371.77,51.89a2.19,2.19,0,0,1,1,.21,1.17,1.17,0,0,1,.27.15l0,0,.06,0a1.26,1.26,0,0,1,.2.2l.08.11,0,0,.07.1.05.06,0,.08.07.11a1.67,1.67,0,0,1,.22.49l0,0v0a1.42,1.42,0,0,1,.05.16l0,.08.12.38a1.67,1.67,0,0,1,.06.32c0,.21,0,.44,0,.66V245.63a12.29,12.29,0,0,1-5.49,9.5l-203.3,117.5a3,3,0,0,1-1.57.43,3.15,3.15,0,0,1-3.14-3.14V182.39c0-6.76,2.84-10.81,5.49-12.34L369.6,52.56a4.46,4.46,0,0,1,2.17-.67m0-1a5.33,5.33,0,0,0-2.64.81L165.64,169.22c-3.29,1.89-6,6.53-6,13.17V369.92a4.1,4.1,0,0,0,4.1,4.1,4,4,0,0,0,2-.56L369.13,256a13.21,13.21,0,0,0,6-10.34V55.17c0-.25,0-.51,0-.74a2.43,2.43,0,0,0-.1-.55.13.13,0,0,0,0-.12,2.17,2.17,0,0,0-.14-.53,2.75,2.75,0,0,0-.35-.76,1,1,0,0,0-.2-.31.92.92,0,0,0-.17-.22,2.4,2.4,0,0,0-.39-.39l0,0a2.9,2.9,0,0,0-.51-.29,3.09,3.09,0,0,0-1.37-.3Z" style="fill:#e0e0e0"></path><path d="M218.48,165.48,354.24,87.09v6.3L218.48,171.77c-1.28.74-2.32.13-2.32-1.34v-.93A5.09,5.09,0,0,1,218.48,165.48Z" style="fill:#e0e0e0"></path><path d="M365.14,80.8l-8.22,4.74v6.3l8.22-4.75a5.13,5.13,0,0,0,2.32-4v-.93C367.46,80.66,366.42,80.06,365.14,80.8Z" style="fill:#e0e0e0"></path><path d="M361.14,87.8a.84.84,0,0,1-.46-.13,1.41,1.41,0,0,1-.58-1.29,3.45,3.45,0,0,1,1.45-2.76,1.11,1.11,0,0,1,1.12-.07,1.43,1.43,0,0,1,.58,1.29,3.42,3.42,0,0,1-1.45,2.76A1.35,1.35,0,0,1,361.14,87.8Zm1.06-3.88a.89.89,0,0,0-.4.12,3,3,0,0,0-1.22,2.34,1,1,0,0,0,.34.87.62.62,0,0,0,.63-.07,3,3,0,0,0,1.22-2.34,1,1,0,0,0-.34-.87A.46.46,0,0,0,362.2,83.92Z" style="fill:#fafafa"></path><path d="M363.69,87.38a.3.3,0,0,1-.15,0l-1.07-.81a.25.25,0,0,1,0-.34.23.23,0,0,1,.33-.05l1.08.81a.25.25,0,0,1,0,.34A.22.22,0,0,1,363.69,87.38Z" style="fill:#fafafa"></path><path d="M165.64,169.22c-3.29,1.89-6,6.53-6,13.17V369.92a4.09,4.09,0,0,0,6.15,3.54L211,347.36V161.22l.07-18.22Z" style="fill:#f0f0f0"></path><path d="M210.08,144.67,210,161.22V346.81l-44.68,25.82a3,3,0,0,1-1.57.43,3.15,3.15,0,0,1-3.14-3.14V182.39c0-6.76,2.84-10.81,5.49-12.34l44-25.38m1-1.67-45.41,26.22c-3.29,1.89-6,6.53-6,13.17V369.92a4.1,4.1,0,0,0,4.1,4.1,4,4,0,0,0,2-.56L211,347.36V161.22l.07-18.22Z" style="fill:#e0e0e0"></path><path d="M177.63,191.41l23.86-13.77c.84-.48,1.52-.09,1.52.88v2a3.35,3.35,0,0,1-1.52,2.63L177.63,196.9c-.84.48-1.52.09-1.52-.88v-2A3.35,3.35,0,0,1,177.63,191.41Z" style="fill:#e0e0e0"></path><path d="M171.36,196.79v2a3.36,3.36,0,0,1-1.52,2.63l-.61.37c-.84.49-1.52.09-1.52-.88v-2a3.38,3.38,0,0,1,1.52-2.64l.61-.37C170.68,195.42,171.36,195.82,171.36,196.79Z" style="fill:#BA68C8"></path><path d="M177.63,202.35l23.86-13.77c.84-.48,1.52-.09,1.52.88v2a3.35,3.35,0,0,1-1.52,2.63l-23.86,13.77c-.84.48-1.52.09-1.52-.88v-2A3.35,3.35,0,0,1,177.63,202.35Z" style="fill:#e0e0e0"></path><path d="M171.36,207.73v2a3.35,3.35,0,0,1-1.52,2.63l-.61.37c-.84.49-1.52.1-1.52-.87v-2a3.38,3.38,0,0,1,1.52-2.64l.61-.37C170.68,206.36,171.36,206.76,171.36,207.73Z" style="fill:#BA68C8"></path><path d="M177.63,213.29l23.86-13.77c.84-.48,1.52-.09,1.52.88v2a3.35,3.35,0,0,1-1.52,2.63l-23.86,13.77c-.84.48-1.52.09-1.52-.88v-2A3.35,3.35,0,0,1,177.63,213.29Z" style="fill:#e0e0e0"></path><path d="M171.36,218.67v2a3.35,3.35,0,0,1-1.52,2.63l-.61.37c-.84.49-1.52.1-1.52-.87v-2a3.38,3.38,0,0,1,1.52-2.64l.61-.37C170.68,217.31,171.36,217.7,171.36,218.67Z" style="fill:#BA68C8"></path><path d="M177.63,249.57l23.86-13.77c.84-.48,1.52-.09,1.52.88v2a3.35,3.35,0,0,1-1.52,2.63l-23.86,13.77c-.84.48-1.52.09-1.52-.88v-2A3.35,3.35,0,0,1,177.63,249.57Z" style="fill:#e0e0e0"></path><path d="M171.36,255v2a3.35,3.35,0,0,1-1.52,2.63l-.61.37c-.84.49-1.52.1-1.52-.87v-2a3.38,3.38,0,0,1,1.52-2.64l.61-.37C170.68,253.59,171.36,254,171.36,255Z" style="fill:#BA68C8"></path><path d="M177.63,259.26l23.86-13.77c.84-.48,1.52-.09,1.52.88v2a3.35,3.35,0,0,1-1.52,2.63l-23.86,13.77c-.84.48-1.52.09-1.52-.88v-2A3.35,3.35,0,0,1,177.63,259.26Z" style="fill:#e0e0e0"></path><path d="M171.36,264.64v2a3.35,3.35,0,0,1-1.52,2.63l-.61.37c-.84.49-1.52.1-1.52-.87v-2a3.38,3.38,0,0,1,1.52-2.64l.61-.37C170.68,263.28,171.36,263.67,171.36,264.64Z" style="fill:#BA68C8"></path><path d="M177.63,269l23.86-13.77c.84-.48,1.52-.09,1.52.88v2a3.35,3.35,0,0,1-1.52,2.63l-23.86,13.77c-.84.48-1.52.09-1.52-.88v-2A3.35,3.35,0,0,1,177.63,269Z" style="fill:#e0e0e0"></path><path d="M171.36,274.33v2a3.35,3.35,0,0,1-1.52,2.63l-.61.37c-.84.49-1.52.1-1.52-.87v-2a3.38,3.38,0,0,1,1.52-2.64l.61-.37C170.68,273,171.36,273.36,171.36,274.33Z" style="fill:#BA68C8"></path><polygon points="177.22 224.61 177.22 228.03 180.18 224.61 177.22 224.61" style="fill:#BA68C8"></polygon><path d="M182,223.91c0,.63.45.89,1,.56l19-10.94a2.23,2.23,0,0,0,1-1.75c0-.64-.45-.9-1-.58l-19,11A2.21,2.21,0,0,0,182,223.91Z" style="fill:#e0e0e0"></path><polygon points="177.22 230.1 177.22 233.52 180.18 230.1 177.22 230.1" style="fill:#BA68C8"></polygon><path d="M182,229.4c0,.63.45.88,1,.56L202,219a2.23,2.23,0,0,0,1-1.75c0-.64-.45-.9-1-.58l-19,11A2.21,2.21,0,0,0,182,229.4Z" style="fill:#e0e0e0"></path><polygon points="177.22 235.59 177.22 239 180.18 235.59 177.22 235.59" style="fill:#BA68C8"></polygon><path d="M182,234.89c0,.63.45.88,1,.56l19-10.94a2.25,2.25,0,0,0,1-1.75c0-.64-.45-.9-1-.58l-19,11A2.21,2.21,0,0,0,182,234.89Z" style="fill:#e0e0e0"></path><polygon points="177.22 241.08 177.22 244.49 180.18 241.08 177.22 241.08" style="fill:#BA68C8"></polygon><path d="M182,240.38c0,.63.45.88,1,.56L202,230a2.25,2.25,0,0,0,1-1.75c0-.64-.45-.9-1-.58l-19,11A2.19,2.19,0,0,0,182,240.38Z" style="fill:#e0e0e0"></path><path d="M373.14,51.22a4.32,4.32,0,0,0-4,.51L165.64,169.22a13.19,13.19,0,0,0-6,10.33v11.57l-7.61-4.47V175.22A13.16,13.16,0,0,1,158,164.91L361.51,47.42c1.7-1,3.23-1,4.33-.35S371.87,50.55,373.14,51.22Z" style="fill:#BA68C8"></path><path d="M375.08,55.13c0-3.76-2.68-5.29-6-3.39L165.64,169.22a13.17,13.17,0,0,0-6,10.33v11.58L375.08,66.78Z" style="fill:#BA68C8"></path><g style="opacity:0.2"><path d="M369.12,51.73,165.64,169.22a12.34,12.34,0,0,0-4.2,4.42l-7.57-4.38A11.93,11.93,0,0,1,158,164.9L361.51,47.42a4.19,4.19,0,0,1,4.33-.36c1.07.66,6,3.47,7.28,4.15A4.31,4.31,0,0,0,369.12,51.73Z" style="fill:#fff"></path></g><path d="M152.05,186.68V175.22a12.25,12.25,0,0,1,1.82-6l7.59,4.37a12,12,0,0,0-1.78,5.92v11.58Z" style="opacity:0.15"></path><path d="M351.58,67.38c-1.25.72-2.27,2.87-2.27,4.8s1,2.9,2.27,2.18,2.26-2.87,2.26-4.8S352.83,66.66,351.58,67.38Z" style="fill:#37474f"></path><path d="M359.74,62.66c-1.26.72-2.27,2.87-2.27,4.8s1,2.9,2.27,2.18,2.26-2.87,2.26-4.8S361,61.94,359.74,62.66Z" style="fill:#37474f"></path><path d="M367.89,57.94c-1.25.73-2.26,2.87-2.26,4.8s1,2.9,2.26,2.18,2.27-2.87,2.27-4.8S369.15,57.22,367.89,57.94Z" style="fill:#37474f"></path><path d="M161.5,373.35l-6.28-3.63a6.36,6.36,0,0,1-3.12-4.63,8.43,8.43,0,0,1,0-.86V186.66l7.62,4.46v178.8a4.37,4.37,0,0,0,.05.64,1.87,1.87,0,0,0,.08.34.37.37,0,0,0,0,.15,2.32,2.32,0,0,0,.13.37.43.43,0,0,0,0,.05l.21.44c.08.14.18.28.27.41a3.25,3.25,0,0,0,.23.29,4.07,4.07,0,0,0,1.12.9Z" style="fill:#e0e0e0"></path></g></g></g><g id="freepik--Folder--inject-194"><g id="freepik--folder--inject-194"><path d="M227.42,448.7a7.1,7.1,0,0,1-3.5-.83L181,423.1l2.17-1.26-3.07-2.72a.93.93,0,0,1-.3-.8,1,1,0,0,1,.55-.75l19.18-11.08a2.23,2.23,0,0,1,1.69-.14l4.87,1.83a1.1,1.1,0,0,0,.84-.06l36.27-20.94.25.15,42.11,24.31a2.67,2.67,0,0,1,1.34,2.34,2.65,2.65,0,0,1-1.35,2.33l-54.64,31.56A7.16,7.16,0,0,1,227.42,448.7ZM183,423.1l41.4,23.9a6.75,6.75,0,0,0,6,0l54.65-31.56a1.69,1.69,0,0,0,0-2.93l-41.85-24.16L207.45,409a2.12,2.12,0,0,1-1.68.14l-4.88-1.83a1.1,1.1,0,0,0-.84.07l-19.19,11.07,3.08,2.72a.94.94,0,0,1,.3.8,1.05,1.05,0,0,1-.55.75Z" style="fill:#e0e0e0"></path><path d="M252,448.72a7.19,7.19,0,0,1-3.5-.85L205.55,423.1l2.18-1.26-3.08-2.72a.93.93,0,0,1-.3-.8,1.05,1.05,0,0,1,.55-.75l19.19-11.08a2.21,2.21,0,0,1,1.68-.14l4.87,1.83a1.13,1.13,0,0,0,.85-.06l36.26-20.94.26.15L300.27,406l-.5.87-32-18.48L232,409a2.12,2.12,0,0,1-1.68.14l-4.87-1.83a1.13,1.13,0,0,0-.85.07l-19.18,11.07,3.07,2.73a.91.91,0,0,1,.3.79,1,1,0,0,1-.55.75l-.66.39L249,447a6.75,6.75,0,0,0,6,0l45.24-26.13.5.88-45.24,26.12A7.19,7.19,0,0,1,252,448.72Z" style="fill:#BA68C8"></path><path d="M311.18,424a25.14,25.14,0,0,1-12.26-2.91h0c-3.39-2-5.23-4.6-5.19-7.43s1.92-5.37,5.26-7.3c6.77-3.91,17.79-3.91,24.56,0,3.38,1.95,5.23,4.57,5.22,7.37s-1.89,5.42-5.28,7.36A25.44,25.44,0,0,1,311.18,424Zm-11.75-3.79c6.46,3.73,17,3.73,23.56,0,3.06-1.75,4.76-4.05,4.77-6.48s-1.66-4.74-4.71-6.5c-6.5-3.75-17.06-3.75-23.56,0-3,1.75-4.71,4-4.75,6.45s1.63,4.77,4.69,6.53Z" style="fill:#BA68C8"></path><path d="M316.84,418a1,1,0,0,1-.5-.13l-11.18-6.46a1,1,0,1,1,1-1.74l11.19,6.45a1,1,0,0,1,.36,1.38A1,1,0,0,1,316.84,418Z" style="fill:#BA68C8"></path><path d="M305.66,418a1,1,0,0,1-.5-1.88l11.18-6.45a1,1,0,0,1,1.37.36,1,1,0,0,1-.36,1.38l-11.19,6.46A1,1,0,0,1,305.66,418Z" style="fill:#BA68C8"></path></g></g><g id="freepik--Icon--inject-194"><g id="freepik--duplicate-icon--inject-194"><g id="freepik--Box--inject-194"><path d="M162.9,143.41c1,.63,5.75,3.33,6.94,3.94a4.13,4.13,0,0,0-3.82.52L86.63,193.73A12.52,12.52,0,0,0,81,203.57v90.36a6.22,6.22,0,0,0,1.68,4.41,4.58,4.58,0,0,0,.42.35c-4.53-3.22-9.27-3.17-9.36-8.89V199.44a12.61,12.61,0,0,1,5.68-9.84l79.39-45.86A4.11,4.11,0,0,1,162.9,143.41Z" style="fill:#263238"></path><path id="freepik--Outline--inject-194" d="M168.55,147.09a5.19,5.19,0,0,0-2.54.77L86.63,193.72A12.58,12.58,0,0,0,81,203.56v90.36c0,2.86,1.59,5.3,3.81,5.3a3.86,3.86,0,0,0,1.88-.55l79.48-45.89A12.53,12.53,0,0,0,171.8,243l-.11-91.81c0-2.57-1.28-4-3.14-4Z" style="fill:#37474f"></path><path d="M166,147.86,86.64,193.72a11.63,11.63,0,0,0-4,4.22l-7.22-4.18a11.37,11.37,0,0,1,4-4.15l79.39-45.86a4,4,0,0,1,4.12-.34c1,.63,5.74,3.31,6.93,4A4.1,4.1,0,0,0,166,147.86Z" style="fill:#455a64"></path></g><path d="M106.39,199.43v54c0,2.47,1.73,3.47,3.87,2.24l46.76-27A8.57,8.57,0,0,0,160.9,222V168c0-2.47-1.73-3.47-3.87-2.24l-46.76,27A8.56,8.56,0,0,0,106.39,199.43Z" style="fill:#BA68C8"></path><path d="M139.4,190.24c0-2.47-1.74-3.47-3.88-2.24l-29.13,16.82v48.6c0,2.47,1.73,3.47,3.87,2.24l29.13-16.82Z" style="opacity:0.30000000000000004"></path><path d="M91.86,224.6v54c0,2.47,1.73,3.47,3.87,2.24l46.76-27a8.55,8.55,0,0,0,3.87-6.71v-54c0-2.47-1.73-3.47-3.87-2.24l-46.76,27A8.57,8.57,0,0,0,91.86,224.6Z" style="fill:#BA68C8"></path><path d="M91.86,224.6v54c0,2.47,1.73,3.47,3.87,2.24l46.76-27a8.55,8.55,0,0,0,3.87-6.71v-54c0-2.47-1.73-3.47-3.87-2.24l-46.76,27A8.57,8.57,0,0,0,91.86,224.6Z" style="fill:#fff;opacity:0.30000000000000004"></path><path d="M135.46,231.57v-5.46c0-1-.69-1.39-1.54-.89l-9.36,5.4v-10.8c0-1-.69-1.39-1.55-.9l-4.72,2.73a3.42,3.42,0,0,0-1.55,2.68v10.8l-9.35,5.4a3.41,3.41,0,0,0-1.55,2.68v5.46c0,1,.69,1.38,1.55.89l9.35-5.4V255c0,1,.7,1.39,1.55.89l4.72-2.72a3.43,3.43,0,0,0,1.55-2.69V239.65l9.36-5.4A3.45,3.45,0,0,0,135.46,231.57Z" style="fill:#fff"></path></g></g><g id="freepik--Cursors--inject-194"><g id="freepik--Cursor--inject-194"><polygon points="197.53 266.61 192 263.42 192 320.4 197.53 323.58 208.24 301.1 223.48 292.31 197.53 266.61" style="fill:#e0e0e0"></polygon><path d="M197.53,324.06a.54.54,0,0,1-.25-.06l-5.52-3.19a.48.48,0,0,1-.24-.41v-57a.51.51,0,0,1,.24-.42.53.53,0,0,1,.49,0l5.52,3.19.09.07L223.81,292a.49.49,0,0,1,.14.41.46.46,0,0,1-.23.35l-15.11,8.72L198,323.79a.48.48,0,0,1-.29.25A.36.36,0,0,1,197.53,324.06Zm-5-3.94,4.82,2.79,10.5-22a.48.48,0,0,1,.19-.21l14.69-8.48L197.23,267l-4.74-2.74Z" style="fill:#455a64"></path><polygon points="197.53 266.61 197.53 323.58 208.24 301.1 223.48 292.31 197.53 266.61" style="fill:#fafafa"></polygon><path d="M197.53,324.06h-.11a.48.48,0,0,1-.38-.47v-57a.48.48,0,0,1,.82-.35L223.81,292a.49.49,0,0,1,.14.41.46.46,0,0,1-.23.35l-15.11,8.72L198,323.79A.47.47,0,0,1,197.53,324.06Zm.48-56.3v53.69l9.8-20.56a.48.48,0,0,1,.19-.21l14.69-8.48Z" style="fill:#455a64"></path><polygon points="181.79 263.32 176.27 260.13 176.27 317.11 181.79 320.29 192.51 297.81 207.74 289.01 181.79 263.32" style="fill:#263238"></polygon><polygon points="181.79 263.32 181.79 320.29 192.51 297.81 207.74 289.01 181.79 263.32" style="fill:#455a64"></polygon></g></g><g id="freepik--Duplicate--inject-194"><g id="freepik--duplicated-document--inject-194"><path d="M302,277.57a.43.43,0,0,1-.38-.23.45.45,0,0,1,.16-.61l2.32-1.34a.45.45,0,0,1,.45.78l-2.32,1.34A.46.46,0,0,1,302,277.57Zm-3.22-.81a.44.44,0,0,1-.45-.44.2.2,0,0,1,0-.07v-2.64a.45.45,0,0,1,.9,0v2.69A.46.46,0,0,1,298.77,276.76Zm9.42-2.77a.44.44,0,0,1-.22-.83l2.32-1.34a.44.44,0,0,1,.61.16.45.45,0,0,1-.16.61l-2.33,1.34A.46.46,0,0,1,308.19,274Zm6.19-3.57a.43.43,0,0,1-.38-.23.45.45,0,0,1,.16-.61l2.33-1.34a.45.45,0,1,1,.44.78l-2.32,1.34A.46.46,0,0,1,314.38,270.42Zm-15.61-.83a.45.45,0,0,1-.45-.45v-2.68a.45.45,0,0,1,.9,0v2.68A.45.45,0,0,1,298.77,269.59Zm21.81-2.75a.47.47,0,0,1-.39-.22.45.45,0,0,1,.17-.61l2.32-1.34a.45.45,0,0,1,.45.77l-2.33,1.34A.43.43,0,0,1,320.58,266.84Zm6.2-3.57a.43.43,0,0,1-.39-.23.45.45,0,0,1,.16-.61l2.33-1.34a.45.45,0,1,1,.44.78L327,263.21A.46.46,0,0,1,326.78,263.27Zm-28-.83a.45.45,0,0,1-.45-.45v-2.68a.45.45,0,0,1,.9,0V262A.45.45,0,0,1,298.77,262.44Zm34.2-2.75a.45.45,0,0,1-.22-.83l2.32-1.34a.45.45,0,0,1,.62.16.45.45,0,0,1-.17.61l-2.32,1.34A.46.46,0,0,1,333,259.69Zm6.2-3.57a.46.46,0,0,1-.39-.23.45.45,0,0,1,.17-.61l2.32-1.34a.45.45,0,0,1,.61.17.45.45,0,0,1-.16.61l-2.33,1.34A.43.43,0,0,1,339.17,256.12Zm-40.4-.84a.45.45,0,0,1-.45-.45v-2.68a.45.45,0,1,1,.9,0v2.68A.45.45,0,0,1,298.77,255.28Zm46.6-2.74a.44.44,0,0,1-.39-.22.45.45,0,0,1,.16-.61l2.33-1.34a.43.43,0,0,1,.61.16.45.45,0,0,1-.17.61l-2.32,1.34A.46.46,0,0,1,345.37,252.54Zm6.19-3.57a.43.43,0,0,1-.38-.23.44.44,0,0,1,.16-.61l2.32-1.34a.45.45,0,0,1,.45.78l-2.32,1.34A.46.46,0,0,1,351.56,249Zm-52.79-.84a.45.45,0,0,1-.45-.45V245a.45.45,0,0,1,.9,0v2.68A.45.45,0,0,1,298.77,248.13Zm58.44-3.37a.41.41,0,0,1-.21,0,.44.44,0,0,1-.19-.6,4.22,4.22,0,0,0,.5-1.85v-.54a.45.45,0,0,1,.89,0v.54a5,5,0,0,1-.6,2.26A.43.43,0,0,1,357.21,244.76ZM298.77,241a.45.45,0,0,1-.45-.44v-2.69a.45.45,0,0,1,.9,0v2.69A.45.45,0,0,1,298.77,241Zm59-3.27a.45.45,0,0,1-.45-.45v-2.68a.45.45,0,1,1,.89,0v2.68A.45.45,0,0,1,357.76,237.7Zm-59-3.88a.45.45,0,0,1-.45-.45v-2.68a.45.45,0,0,1,.9,0v2.68A.45.45,0,0,1,298.77,233.82Zm59-3.28a.44.44,0,0,1-.44-.44v-2.69a.45.45,0,0,1,.89,0v2.69A.45.45,0,0,1,357.75,230.54Zm-59-3.87a.45.45,0,0,1-.45-.45v-2.68a.45.45,0,0,1,.9,0v2.68A.45.45,0,0,1,298.77,226.67Zm59-3.28a.45.45,0,0,1-.44-.45v-2.68a.45.45,0,1,1,.89,0v2.68A.45.45,0,0,1,357.75,223.39Zm-59-3.88a.45.45,0,0,1-.45-.45v-2.68a.45.45,0,0,1,.9,0v2.68A.45.45,0,0,1,298.77,219.51Zm59-3.27a.45.45,0,0,1-.44-.45v-2.68a.45.45,0,1,1,.89,0v2.68A.45.45,0,0,1,357.75,216.24Zm-59-3.88a.45.45,0,0,1-.45-.45v-2.68a.45.45,0,0,1,.9,0v2.68A.45.45,0,0,1,298.77,212.36Zm59-3.28a.45.45,0,0,1-.45-.44V206a.45.45,0,0,1,.9,0v2.69A.45.45,0,0,1,357.75,209.08Zm-59-3.88a.45.45,0,0,1-.45-.44v-2.69a.45.45,0,0,1,.9,0v2.69A.45.45,0,0,1,298.77,205.2Zm59-3.27a.45.45,0,0,1-.45-.45V198.8a.45.45,0,0,1,.9,0v2.68A.45.45,0,0,1,357.75,201.93Zm-59-3.88a.45.45,0,0,1-.45-.45v-2.68a.45.45,0,0,1,.9,0v2.68A.45.45,0,0,1,298.77,198.05Zm59-3.27a.45.45,0,0,1-.45-.45v-2.68a.45.45,0,1,1,.89,0v2.68A.45.45,0,0,1,357.75,194.78Zm-59-3.88a.45.45,0,0,1-.45-.45v-2.68a.45.45,0,0,1,.9,0v2.68A.45.45,0,0,1,298.77,190.9Zm59-3.28a.45.45,0,0,1-.45-.45v-2.68a.45.45,0,1,1,.89,0v2.68A.45.45,0,0,1,357.75,187.62Zm-59-3.88a.45.45,0,0,1-.45-.44v-2.69a.45.45,0,0,1,.9,0v2.69A.45.45,0,0,1,298.77,183.74Zm59-3.27a.45.45,0,0,1-.45-.45v-2.68a.45.45,0,1,1,.89,0V180A.45.45,0,0,1,357.75,180.47Zm-57.95-3.65a.46.46,0,0,1-.27-.09.45.45,0,0,1-.09-.63,4.92,4.92,0,0,1,1.43-1.32l.78-.45a.45.45,0,0,1,.61.16.44.44,0,0,1-.16.61l-.78.45a4,4,0,0,0-1.16,1.08A.45.45,0,0,1,299.8,176.82Zm57.94-3.51a.44.44,0,0,1-.44-.44v-2.69a.45.45,0,0,1,.89,0v2.69A.45.45,0,0,1,357.74,173.31Zm-52-.38a.43.43,0,0,1-.39-.23.45.45,0,0,1,.16-.61l2.33-1.34a.45.45,0,0,1,.61.16.46.46,0,0,1-.16.62L306,172.87A.46.46,0,0,1,305.75,172.93Zm6.19-3.58a.45.45,0,0,1-.22-.83l2.32-1.35a.45.45,0,0,1,.45.78l-2.32,1.34A.46.46,0,0,1,311.94,169.35Zm45.8-3.19a.45.45,0,0,1-.45-.45V163a.45.45,0,0,1,.45-.45.45.45,0,0,1,.45.45v2.68A.45.45,0,0,1,357.74,166.16Zm-39.6-.39a.47.47,0,0,1-.39-.22.45.45,0,0,1,.17-.61l2.32-1.34a.44.44,0,0,1,.61.16.45.45,0,0,1-.16.61l-2.33,1.34A.43.43,0,0,1,318.14,165.77Zm6.2-3.57A.43.43,0,0,1,324,162a.45.45,0,0,1,.16-.61l2.32-1.34a.46.46,0,0,1,.62.16.44.44,0,0,1-.17.61l-2.32,1.35A.46.46,0,0,1,324.34,162.2Zm33.4-3.19a.45.45,0,0,1-.45-.45v-2.68a.45.45,0,0,1,.9,0v2.68A.45.45,0,0,1,357.74,159Zm-27.21-.39a.47.47,0,0,1-.39-.22.46.46,0,0,1,.17-.62l2.32-1.34a.45.45,0,0,1,.61.17.45.45,0,0,1-.16.61l-2.33,1.34A.43.43,0,0,1,330.53,158.62Zm6.2-3.58a.44.44,0,0,1-.39-.22.45.45,0,0,1,.16-.61l2.33-1.34a.44.44,0,1,1,.44.77L337,155A.46.46,0,0,1,336.73,155Zm21-3.19a.45.45,0,0,1-.45-.44v-2.69a.45.45,0,0,1,.9,0v2.69A.45.45,0,0,1,357.74,151.85Zm-14.82-.38a.46.46,0,0,1-.39-.23.45.45,0,0,1,.17-.61l2.32-1.34a.45.45,0,0,1,.61.16.44.44,0,0,1-.16.61l-2.32,1.35A.49.49,0,0,1,342.92,151.47Zm6.2-3.58a.44.44,0,0,1-.39-.22.46.46,0,0,1,.16-.62l2.33-1.34a.45.45,0,1,1,.44.78l-2.32,1.34A.46.46,0,0,1,349.12,147.89Zm8.46-3.17a.44.44,0,0,1-.41-.28c-.24-.57-.84-.65-1.53-.25l-.1.06a.45.45,0,0,1-.62-.16.44.44,0,0,1,.17-.61l.1-.06a1.83,1.83,0,0,1,2.81.68.45.45,0,0,1-.25.58A.33.33,0,0,1,357.58,144.72Z" style="fill:#BA68C8"></path><path d="M298.77,203.86a.43.43,0,0,1-.22-.06l-2.33-1.34a.45.45,0,0,1-.16-.61.45.45,0,0,1,.61-.17L299,203a.46.46,0,0,1,.17.62A.44.44,0,0,1,298.77,203.86Zm-6.2-3.58a.46.46,0,0,1-.22-.06L290,198.88a.45.45,0,0,1,.44-.78l2.33,1.35a.45.45,0,0,1,.16.61A.44.44,0,0,1,292.57,200.28Zm-6.19-3.58a.46.46,0,0,1-.23-.06l-2.32-1.34a.45.45,0,0,1-.17-.61.45.45,0,0,1,.62-.16l2.32,1.34a.45.45,0,0,1-.22.83Zm-6.2-3.58a.38.38,0,0,1-.23-.06l-2.32-1.34a.44.44,0,0,1-.16-.61.45.45,0,0,1,.61-.16l2.32,1.34a.45.45,0,0,1-.22.83Z" style="fill:#BA68C8"></path><path d="M357,132.67c5.17-3,9.36-.56,9.36,5.41s-4.19,13.24-9.36,16.22-9.37.57-9.37-5.4S351.81,135.66,357,132.67Z" style="fill:#fafafa"></path><path d="M352.8,156a5.13,5.13,0,0,1-2.63-.68c-1.89-1.09-2.93-3.36-2.93-6.39,0-6.09,4.29-13.52,9.56-16.56,2.62-1.52,5.11-1.75,7-.66s2.94,3.37,2.94,6.4c0,6.09-4.29,13.51-9.56,16.56A9,9,0,0,1,352.8,156Zm8.37-24.2a8.18,8.18,0,0,0-4,1.23h0c-5.06,2.92-9.18,10.05-9.18,15.9,0,2.74.91,4.78,2.55,5.73s3.87.72,6.25-.66c5.06-2.92,9.17-10.05,9.17-15.89,0-2.75-.91-4.78-2.55-5.73A4.41,4.41,0,0,0,361.17,131.77Z" style="fill:#BA68C8"></path><path d="M363,141.12v-2.21c0-.4-.28-.56-.63-.36l-3.8,2.19v-4.39c0-.4-.28-.56-.62-.36L356,137.1a1.39,1.39,0,0,0-.63,1.09v4.38l-3.8,2.19a1.39,1.39,0,0,0-.63,1.09v2.22c0,.4.28.56.63.36l3.8-2.19v4.38c0,.4.28.57.63.37l1.92-1.11a1.4,1.4,0,0,0,.62-1.09v-4.38l3.8-2.2A1.39,1.39,0,0,0,363,141.12Z" style="fill:#BA68C8"></path><g id="freepik--Document--inject-194"><path d="M360.53,166.66V236a3.28,3.28,0,0,1-1.49,2.58l-50.12,28.94a1,1,0,0,1-1.05.1l-2.8-1.61a1,1,0,0,1-.43-1V181.29a3.28,3.28,0,0,1,1.48-2.58L343.76,157Z" style="fill:#f0f0f0"></path><path d="M310.23,182.8,305,179.92a3.08,3.08,0,0,0-.38,1.37V265a1,1,0,0,0,.43,1l2.8,1.61a1,1,0,0,0,1.05-.1l1.31-.75Z" style="fill:#e0e0e0"></path><path d="M360.53,166.66V236a3.31,3.31,0,0,1-1.49,2.58l-50.12,28.94c-.82.47-1.49.09-1.49-.86V182.91a3.29,3.29,0,0,1,1.49-2.58l29.25-16.9,8.39-4.84Z" style="fill:#fafafa"></path><path d="M346.56,159.44l13.23,7.65V236a2.55,2.55,0,0,1-1.12,1.94l-50.12,28.94a.7.7,0,0,1-.3.1s-.07-.11-.07-.32V182.91a2.56,2.56,0,0,1,1.11-1.94l29.25-16.9,8-4.63m0-.85-8.39,4.84-29.25,16.9a3.29,3.29,0,0,0-1.49,2.58v83.71c0,.67.34,1.06.83,1.06a1.31,1.31,0,0,0,.66-.2L359,238.54a3.31,3.31,0,0,0,1.49-2.58v-69.3l-14-8.07Z" style="fill:#e0e0e0"></path><path d="M353.2,167.21c.54,0,.92.43.92,1.18v59a3.66,3.66,0,0,1-1.65,2.86l-37,21.34a1.41,1.41,0,0,1-.74.23c-.54,0-.91-.43-.91-1.18v-59a3.66,3.66,0,0,1,1.65-2.86l25-14.43,12-6.91a1.48,1.48,0,0,1,.73-.22m0-.69a2.19,2.19,0,0,0-1.08.32l-12,6.9-25,14.44a4.34,4.34,0,0,0-2,3.45v59a1.68,1.68,0,0,0,1.6,1.87,2.2,2.2,0,0,0,1.09-.32l37-21.34a4.36,4.36,0,0,0,2-3.46v-59a1.67,1.67,0,0,0-1.6-1.87Z" style="fill:#BA68C8"></path><path d="M346.56,173V158.59l14,8.07-12.48,7.2C347.23,174.34,346.56,174,346.56,173Z" style="fill:#e0e0e0"></path><path d="M321.39,211.11l25.19-14.69a4.16,4.16,0,0,0,1.94-3.21c0-1.16-.87-1.6-1.94-1l-25.2,14.68a4.15,4.15,0,0,0-1.93,3.22C319.45,211.29,320.32,211.73,321.39,211.11Zm25.19-9.6-25.2,14.69a4.15,4.15,0,0,0-1.93,3.22c0,1.15.87,1.59,1.94,1l25.19-14.69a4.16,4.16,0,0,0,1.94-3.22C348.52,201.33,347.65,200.89,346.58,201.51Zm0,9.29-25.2,14.69a4.12,4.12,0,0,0-1.93,3.21c0,1.16.87,1.6,1.94,1L346.58,215a4.13,4.13,0,0,0,1.94-3.21C348.52,210.62,347.65,210.18,346.58,210.8Z" style="fill:#BA68C8"></path><path d="M321.39,211.11l25.19-14.69a4.16,4.16,0,0,0,1.94-3.21c0-1.16-.87-1.6-1.94-1l-25.2,14.68a4.15,4.15,0,0,0-1.93,3.22C319.45,211.29,320.32,211.73,321.39,211.11Zm25.19-9.6-25.2,14.69a4.15,4.15,0,0,0-1.93,3.22c0,1.15.87,1.59,1.94,1l25.19-14.69a4.16,4.16,0,0,0,1.94-3.22C348.52,201.33,347.65,200.89,346.58,201.51Zm0,9.29-25.2,14.69a4.12,4.12,0,0,0-1.93,3.21c0,1.16.87,1.6,1.94,1L346.58,215a4.13,4.13,0,0,0,1.94-3.21C348.52,210.62,347.65,210.18,346.58,210.8Z" style="fill:#fff;opacity:0.30000000000000004"></path></g></g><g id="freepik--document--inject-194"><path d="M279.32,170.19v69.3a3.31,3.31,0,0,1-1.49,2.58L227.71,271a1.06,1.06,0,0,1-1.06.1l-2.79-1.61a1,1,0,0,1-.43-1V184.82a3.3,3.3,0,0,1,1.48-2.58l37.64-21.73Z" style="fill:#f0f0f0"></path><path d="M229,186.33l-5.2-2.88a3,3,0,0,0-.39,1.37v83.72a1.05,1.05,0,0,0,.44,1l2.79,1.61a1,1,0,0,0,1.06-.1l1.3-.75Z" style="fill:#e0e0e0"></path><path d="M279.32,170.19v69.3a3.31,3.31,0,0,1-1.49,2.58L227.71,271c-.82.47-1.49.09-1.49-.86V186.44a3.29,3.29,0,0,1,1.49-2.58L257,167l8.38-4.84Z" style="fill:#fafafa"></path><path d="M265.34,163l13.24,7.65v68.87a2.58,2.58,0,0,1-1.12,1.94l-50.12,28.94a.69.69,0,0,1-.31.1.53.53,0,0,1-.07-.32V186.44a2.55,2.55,0,0,1,1.12-1.94l29.25-16.9,8-4.63m0-.85L257,167l-29.25,16.9a3.29,3.29,0,0,0-1.49,2.58v83.71c0,.67.34,1.06.83,1.06a1.31,1.31,0,0,0,.66-.2l50.12-28.94a3.31,3.31,0,0,0,1.49-2.58v-69.3l-14-8.07Z" style="fill:#e0e0e0"></path><path d="M272,170.74c.54,0,.91.43.91,1.18v59a3.66,3.66,0,0,1-1.65,2.86l-37,21.34a1.46,1.46,0,0,1-.74.23c-.54,0-.91-.43-.91-1.18v-59a3.66,3.66,0,0,1,1.65-2.86l25-14.43,12-6.91a1.55,1.55,0,0,1,.74-.22m0-.69a2.16,2.16,0,0,0-1.08.32l-12,6.9-25,14.44a4.35,4.35,0,0,0-2,3.45v59a1.68,1.68,0,0,0,1.6,1.87,2.16,2.16,0,0,0,1.08-.32l37-21.34a4.36,4.36,0,0,0,2-3.46v-59a1.68,1.68,0,0,0-1.6-1.87Z" style="fill:#BA68C8"></path><path d="M265.35,176.53V162.12l14,8.07-12.48,7.2C266,177.87,265.35,177.48,265.35,176.53Z" style="fill:#e0e0e0"></path><path d="M240.17,214.64,265.37,200a4.16,4.16,0,0,0,1.94-3.21c0-1.16-.87-1.6-1.94-1l-25.2,14.68a4.13,4.13,0,0,0-1.93,3.22C238.24,214.82,239.1,215.26,240.17,214.64Zm25.2-9.6-25.2,14.69a4.13,4.13,0,0,0-1.93,3.22c0,1.15.86,1.59,1.93,1l25.2-14.69a4.16,4.16,0,0,0,1.94-3.22C267.31,204.86,266.44,204.43,265.37,205Zm0,9.29L240.17,229a4.09,4.09,0,0,0-1.93,3.21c0,1.16.86,1.6,1.93,1l25.2-14.69a4.13,4.13,0,0,0,1.94-3.21C267.31,214.15,266.44,213.71,265.37,214.33Z" style="fill:#BA68C8"></path><path d="M240.17,214.64,265.37,200a4.16,4.16,0,0,0,1.94-3.21c0-1.16-.87-1.6-1.94-1l-25.2,14.68a4.13,4.13,0,0,0-1.93,3.22C238.24,214.82,239.1,215.26,240.17,214.64Zm25.2-9.6-25.2,14.69a4.13,4.13,0,0,0-1.93,3.22c0,1.15.86,1.59,1.93,1l25.2-14.69a4.16,4.16,0,0,0,1.94-3.22C267.31,204.86,266.44,204.43,265.37,205Zm0,9.29L240.17,229a4.09,4.09,0,0,0-1.93,3.21c0,1.16.86,1.6,1.93,1l25.2-14.69a4.13,4.13,0,0,0,1.94-3.21C267.31,214.15,266.44,213.71,265.37,214.33Z" style="fill:#fff;opacity:0.30000000000000004"></path></g></g><g id="freepik--Character--inject-194"><g id="freepik--character--inject-194"><g id="freepik--Bottom--inject-194"><path d="M388.52,399.32c.08,4.34.42,10.65,0,12.45s-7.65,3.56-13.31,3.82S362.74,415,362.33,419s3.14,6.67,5.74,7.87c4.41,2.05,9.33,1.6,13.66,1s6.64-.18,11.21.94,7.15.43,9.1-.55c2.9-1.45,2.13-6.4,1.11-9.62s-.91-6.17-.53-10.64,1.66-11,1.66-11Z" style="fill:#ffbda7"></path><path d="M403.15,418.56s0,1.37-3,2-7.88.46-11.33.69c-5.17.33-9.09.92-15,0-5.2-.82-5-4.94-.32-5.6h0c-5.24.09-10.81-.27-11.18,3.31-.41,4,3.14,6.67,5.74,7.87,4.41,2.05,9.33,1.6,13.66,1s6.64-.18,11.21.94,7.15.43,9.1-.55C404.94,426.73,404.17,421.78,403.15,418.56Z" style="fill:#455a64"></path><path d="M442.26,388.55c2.43,3.52,6.43,10.18,7,11.83s1.06,7.86,0,9.69c-1.52,1.11-3.9,1.75-5.93,2.75-2.94,1.45-3.57,3.86-1.65,5.7,2.67,2.57,7,2.87,9.6,2.72,3.8-.58,4.06-4.83,4.6-8.6s-.07-11.16,2.79-15.71,7.91-5,8.57-3.46c-.31-2.29-1.58-2.35-4.31-3.9s-5.12-1.5-6.63-5.09c-1.8-4.25-3.43-9.32-3.43-9.32Z" style="fill:#ffbda7"></path><path d="M447.6,421.31c2.72.45,4.64.45,9.47-1.92,4.18-2.05,5.24-2.92,5.88-4.05,1-1.8-.08-6.24.79-10.06a39.89,39.89,0,0,1,2.76-7.81c.95-2.32.88-3.32.73-4-.33-1.45-3.28-1.63-6.09,0s-4.63,4.74-5.56,12.15S456.08,421.13,447.6,421.31Z" style="fill:#263238"></path><path d="M467.23,393.47c-.32-2.29-1.11-2.63-3.84-4.17-1-.58-2-1-2.95-1.46h0c-2.65-.5-6.82,1.58-7,7.14s.74,12.61-.93,15.22c-1.43,2.23-3.77,2.08-3.23-.13-3.76,1.38-5.05,1.4-7.17,2.56-2.44,1.34-3.26,4.83-1,6.23a14.53,14.53,0,0,0,10.19,2.38c3.8-.58,4.06-4.83,4.6-8.6s-.07-11.16,2.79-15.71S466.57,392,467.23,393.47Z" style="fill:#455a64"></path><path d="M443,390.76s-13.79-20.25-21.15-33.37c-5.45-9.7-5.94-11.58-7.28-17.93-2.87-13.63-3.54-16.83-3.54-16.83l-4.28,27.54c.69,3,2.07,8.91,2.12,12.39a134.66,134.66,0,0,1-1.65,20.3,215.53,215.53,0,0,1-4.19,22.5c-1.07.74-4.18.89-6.88.8a31.74,31.74,0,0,1-7.74-1.45s-2.25-32.45-2.77-41.38c-.63-10.71-.85-14.92-1.19-20.8-.53-9.37-1.8-22.93-1.44-40.15.72-34.24,8.35-49.87,8.35-49.87L430,247.14c3.21,11.54,9.88,12.88,10.58,28.63.16,3.57-1.73,10.67-1.8,16.21-.2,18-1.81,46.26-1.81,46.26,4.24,3.91,7.35,7.45,10.28,16.52,1.78,5.51,5.73,19.47,7.4,25.13C449.76,379.89,442.92,388.55,443,390.76Z" style="fill:#455a64"></path><path d="M403.9,272.25l1-.16c.9,6.21,2.38,13.25,3.19,13.8,1.42,1,6.68,1.76,7.86,1.46s2.23-1.26,4.33-4.11c1.47-2,1.31-3.25,1-6-.13-1-.28-2.18-.37-3.64l1-.07c.09,1.42.23,2.57.36,3.58.35,2.75.56,4.4-1.17,6.75-2.27,3.08-3.41,4.14-4.91,4.5a2.83,2.83,0,0,1-.66.08c-2.08.1-6.6-.73-8-1.68C406,285.7,404.36,275.39,403.9,272.25Z" style="fill:#37474f"></path><path d="M388.08,271.34l1,.29c-2.93,10.51-2.29,20.14,2.95,23.07,1-7.1,2.3-14.44,4.15-22.29l1,.24c-6,25.29-6.68,45.21-5.91,69.14.58,18.24,1.74,49.58,2.28,64.13l-1.05-.18c-.54-14.63-1.69-45.77-2.27-63.91-.52-16.21-.35-30.58,1.65-46C385.88,292.76,384.94,282.61,388.08,271.34Z" style="fill:#37474f"></path><path d="M440.12,280.77a5.73,5.73,0,0,1-2.27,1.34h0c-1.63.07-4.33-2.25-5.1-4a11.82,11.82,0,0,1-.65-3.18,29.15,29.15,0,0,0-.86-4.7l1-.3a30.24,30.24,0,0,1,.9,4.87,10.79,10.79,0,0,0,.57,2.88c.65,1.48,3,3.42,4.1,3.37h0a8.32,8.32,0,0,0,2.59-2C440.3,279.53,440.2,280.24,440.12,280.77Z" style="fill:#37474f"></path><path d="M446.22,385.31c.24-.28.49-.55.74-.82-6.6-11.51-20.77-36.68-22-42.79-1.62-7.82-4.41-34.05-4.53-48.16h-1c.11,14.16,2.91,40.51,4.54,48.37C425.24,348.31,439.67,373.89,446.22,385.31Z" style="fill:#37474f"></path><path d="M426,268.14c2.62,4.17,4.21,11.49.83,19.51l-.95-.41c3.22-7.65,1.72-14.59-.76-18.53Z" style="fill:#37474f"></path><path d="M411,322.63l4.2-28.87s10.87-1.52,12.37-11.72c.26,6-2.15,11.25-8.9,14l-5.4,26.65,1.27,16.72Z" style="fill:#37474f"></path></g><g id="freepik--Top--inject-194"><path d="M433.26,200.5c7,1.67,10.85,3.62,13.74,13.18,2.74,9,7.33,24.33,8.54,30.81.58,3.16.85,6.17-3.54,8-9.92,4.2-19.49,7.14-19.49,7.14l-3.87-11.71,10.6-5.3-2.64-8.54Z" style="fill:#ffbda7"></path><path d="M439.24,242.64a10.15,10.15,0,0,0,4.38,4.78c-2.59.31-5.11-2.39-5.77-4.09Z" style="fill:#f0997a"></path><path d="M433.76,200.42c3.14.57,7.44,1.23,10.58,6s8.24,21.4,8.24,21.4-2.49,3.1-9,4.84-9.25.26-9.25.26L429.47,217Z" style="fill:#BA68C8"></path><path d="M433.76,200.42c3.14.57,7.44,1.23,10.58,6s8.24,21.4,8.24,21.4-2.49,3.1-9,4.84-9.25.26-9.25.26L429.47,217Z" style="opacity:0.2"></path><path d="M399.1,165.49c-1.23-1.64-1.05-4.1-.17-6s2.58-3.75,7.29-5.78c5.6-2.41,20.88-4,26.74,6.22.87,1.53-15.1,28.56-14.79,34.31-3.5-4.26-15-19.15-15-19.15-2.87-1.47-4.59-2.67-5-5.51A6.88,6.88,0,0,1,399.1,165.49Z" style="fill:#263238"></path><path d="M400.77,173.42s-4.46,6.25-4.06,6.81a20.52,20.52,0,0,0,2.83,2.17Z" style="fill:#f0997a"></path><path d="M406.59,161.85c-2.77,1.08-5.25,3-6.5,8.81-.33,1.52.72,3.71,0,5.72-3,8.6-.7,16.11.89,17.85,1.07,1.17,7.06,2.08,10.28,1.42,4-.82,12.9-4.08,17.44-10,5.33-6.93,7.15-16.63,2.06-20.93C423.64,158.69,409.55,160.7,406.59,161.85Z" style="fill:#ffbda7"></path><path d="M425.79,190.45l.5,8.74h0c4.86,2.83-5.18,6.53-15.83,2l-.77-7.88Z" style="fill:#ffbda7"></path><path d="M410.05,196.88c.19,2,.39,5-2.74,5.88-2.95.78-7.71,1.27-12.35,3,0,0,16.72,2.64,25.5,1.19s10.3-7.09,10.3-7.09c-3.16-.43-4.48-1-4.6-3Z" style="fill:#ffbda7"></path><path d="M401.31,194.47c1.35.88,4.4,1.67,8.64,1.39l-.19-2.19a23.19,23.19,0,0,1-4.09.91A14.65,14.65,0,0,1,401.31,194.47Z" style="fill:#f0997a"></path><path d="M402.4,164.72c-.42,3.8,1.89,5.18,3.54,6.05a8.18,8.18,0,0,0-1,4.45c.24,2,.87,3.6,2.73,4.38,1.13.47,1.51,0,2-.9.68-1.27,1.56-3.22,4.34-2.64,3.19.67,3.7,5.58,1.59,8.62a4.72,4.72,0,0,1-3.8,2.19,3,3,0,0,1-2.11-1.19s-.09,4.24,5.17,7.14c0,0,5.27,3.48,11,2.21a105.7,105.7,0,0,0,7.78-8.3c6.55-8.16,7.92-23.65-2-27.19-.47-.16-8.61-2.22-13.14-1.57C404.58,160,402.47,164.06,402.4,164.72Z" style="fill:#263238"></path><path d="M433,160c1.56,0,6.29,2.41,6.27,12.91,0,7.1-1.71,16.59-4,21-6.08,6.7-23.68,8-31.46,5.17,5-2.31,5.94-8.57,5.92-13.42,2.3,3.48,6.51,4.31,11.61,1.75S433,160,433,160Z" style="fill:#263238"></path><path d="M440.08,209.19c-1.46-7.09-5.3-8.63-7-8.94l-4.42-.77c0,.84.6,2.85-7.24,3.83-5,.63-13.75-.66-13.75-.66a85.22,85.22,0,0,0-9.92,2.22c-5.09,1.45-7.77,7.39-11.1,15.24-2.62,6.2-1.64,12.51,3.05,17.13a94.87,94.87,0,0,1-.28,11.6,110.28,110.28,0,0,0-3.52,22.94s3,2.8,26.83,2.27c18.46-.42,27-8.67,27-8.67-.53-2.75-2.46-8.66-5.95-17.84C434.2,238.56,443.23,224.54,440.08,209.19Z" style="fill:#BA68C8"></path><path d="M357.05,227.81s-26.24-5.22-27.74-6.3c-1.27-.92-1.68-2.43-2.32-3.78a17.49,17.49,0,0,0-2.9-4.2c-.74-.84-1.64-1.56-2.34-2.43s-.91-1.82-1.54-2.64-1.47-.23-1.87.56a4.75,4.75,0,0,0,.09,3.57c.19.5.36,1,.56,1.51a7.27,7.27,0,0,1,.55,1.4,1.14,1.14,0,0,1-.06.75c-.28.47-1.17.16-1.56,0a21,21,0,0,1-7.06-4.69c-.86-.87-1.54-1.85-2.46-2.66a11.34,11.34,0,0,0-2.83-1.88,4,4,0,0,0-2.23-.4c-1.13.42.13,2.23.43,2.84a4.17,4.17,0,0,1,.52,2.19,3.42,3.42,0,0,0,.78,2.51,6.85,6.85,0,0,1,1.44,2.55,8.68,8.68,0,0,1,0,1,5,5,0,0,0,1.2,2.8,4,4,0,0,1,1.06,2.63c.23,2.22,2.55,3.85,4.28,4.91a29.31,29.31,0,0,0,6.38,2.82c1.2.39,2.36.88,3.56,1.24s2.18.53,3.23.93c2.49.95,21.81,8.31,29.51,10.44,3.8,1.05,4.82,2,10.17-.79,9.63-5,19.06-8.47,24.6-11.86,7.59-4.65,10.81-7.25,11.85-12.2,2.39-11.48-5.17-13.6-5.17-13.6-2.77.71-4.2,1.35-12.63,6.23C375.55,216.48,357.05,227.81,357.05,227.81Z" style="fill:#ffbda7"></path><path d="M397.18,205.05c-4.65.53-7.07,1.81-12.23,5.06S371,219.05,371,219.05A25.72,25.72,0,0,0,377.14,233c4.14,4.73,7.5,4.34,7.5,4.34s13.87-10.2,16.67-14.13S406.19,207.5,397.18,205.05Z" style="fill:#BA68C8"></path><path d="M397.18,205.05c-4.65.53-7.07,1.81-12.23,5.06S371,219.05,371,219.05A25.72,25.72,0,0,0,377.14,233c4.14,4.73,7.5,4.34,7.5,4.34s13.87-10.2,16.67-14.13S406.19,207.5,397.18,205.05Z" style="opacity:0.2"></path></g></g></g><g id="freepik--speech-bubble--inject-194"><g id="freepik--speech-bubble--inject-194"><g id="freepik--speech-bubble--inject-194"><path d="M420.46,134.44l-2.62-4.91,2.11-6.07v-3.71l-6.44,3.71v3.72l2.77,4.79a.33.33,0,0,0,.19.16h0Z" style="fill:#BA68C8"></path><path d="M420.46,134.44l-2.62-4.91,2.11-6.07v-3.71l-6.44,3.71v3.72l2.77,4.79a.33.33,0,0,0,.19.16h0Z" style="opacity:0.2"></path><path d="M435.82,90.22a4.24,4.24,0,0,0-1.93-3.34L432.32,86a4.3,4.3,0,0,0-3.86,0L404.38,99.9a4.26,4.26,0,0,0-1.93,3.34v26.5a4.24,4.24,0,0,0,1.93,3.34L406,134a4.24,4.24,0,0,0,3.86,0l7.74-4.47,2.76,4.78a.42.42,0,0,0,.75-.07L424,125.8l9.92-5.74a4.24,4.24,0,0,0,1.93-3.34Z" style="fill:#BA68C8"></path><path d="M429.67,108.36v-3c0-.54-.39-.76-.86-.49l-5.16,3v-6c0-.54-.38-.77-.85-.49l-2.61,1.5a1.89,1.89,0,0,0-.85,1.48v6l-5.16,3a1.86,1.86,0,0,0-.86,1.48v3c0,.54.38.76.86.49l5.16-3v6c0,.55.38.77.85.49l2.61-1.5a1.89,1.89,0,0,0,.85-1.48v-6l5.16-3A1.89,1.89,0,0,0,429.67,108.36Z" style="fill:#fafafa"></path><path d="M402.45,129.74a4.24,4.24,0,0,0,1.93,3.34L406,134a4.29,4.29,0,0,0,3.53.16c-.91.34-1.6-.17-1.6-1.27v-26.5a3.89,3.89,0,0,1,.56-1.9L403,101.34a4,4,0,0,0-.56,1.9Z" style="opacity:0.2"></path><path d="M435.76,89.67c-.23-.82-1-1.08-1.87-.57L409.8,103a3.76,3.76,0,0,0-1.35,1.44L403,101.35a3.79,3.79,0,0,1,1.36-1.44L428.46,86a4.3,4.3,0,0,1,3.86,0l1.57.91A4.25,4.25,0,0,1,435.76,89.67Z" style="fill:#fff;opacity:0.30000000000000004"></path></g></g></g></svg>